<svg width="64" height="64" viewBox="0 0 64 64" fill="none" xmlns="http://www.w3.org/2000/svg">
<path fill-rule="evenodd" clip-rule="evenodd" d="M32 57.5999C38.7895 57.5999 45.301 54.9028 50.1019 50.1018C54.9029 45.3009 57.6 38.7894 57.6 31.9999C57.6 25.2104 54.9029 18.6989 50.1019 13.898C45.301 9.09704 38.7895 6.3999 32 6.3999C25.2105 6.3999 18.699 9.09704 13.8981 13.898C9.09713 18.6989 6.39999 25.2104 6.39999 31.9999C6.39999 38.7894 9.09713 45.3009 13.8981 50.1018C18.699 54.9028 25.2105 57.5999 32 57.5999V57.5999ZM34.2624 24.6623C34.8453 24.0588 35.1678 23.2504 35.1606 22.4114C35.1533 21.5724 34.8167 20.7698 34.2234 20.1765C33.6301 19.5832 32.8275 19.2466 31.9885 19.2393C31.1494 19.2321 30.3411 19.5546 29.7376 20.1375L20.1376 29.7375C19.5377 30.3376 19.2007 31.1514 19.2007 31.9999C19.2007 32.8484 19.5377 33.6622 20.1376 34.2623L29.7376 43.8623C30.3411 44.4452 31.1494 44.7677 31.9885 44.7605C32.8275 44.7532 33.6301 44.4166 34.2234 43.8233C34.8167 43.23 35.1533 42.4274 35.1606 41.5884C35.1678 40.7494 34.8453 39.941 34.2624 39.3375L30.1248 35.1999H41.6C42.4487 35.1999 43.2626 34.8628 43.8627 34.2626C44.4629 33.6625 44.8 32.8486 44.8 31.9999C44.8 31.1512 44.4629 30.3373 43.8627 29.7372C43.2626 29.137 42.4487 28.7999 41.6 28.7999H30.1248L34.2624 24.6623V24.6623Z" fill="#191C17"/>
</svg>
