<svg width="64" height="64" viewBox="0 0 64 64" fill="none" xmlns="http://www.w3.org/2000/svg">
<path fill-rule="evenodd" clip-rule="evenodd" d="M32 57.5999C38.7895 57.5999 45.301 54.9028 50.1019 50.1018C54.9029 45.3009 57.6 38.7894 57.6 31.9999C57.6 25.2104 54.9029 18.6989 50.1019 13.898C45.301 9.09704 38.7895 6.3999 32 6.3999C25.2105 6.3999 18.699 9.09704 13.8981 13.898C9.09713 18.6989 6.39999 25.2104 6.39999 31.9999C6.39999 38.7894 9.09713 45.3009 13.8981 50.1018C18.699 54.9028 25.2105 57.5999 32 57.5999V57.5999ZM43.8624 29.7375L34.2624 20.1375C33.6589 19.5546 32.8505 19.2321 32.0115 19.2393C31.1725 19.2466 30.3699 19.5832 29.7766 20.1765C29.1833 20.7698 28.8467 21.5724 28.8394 22.4114C28.8321 23.2504 29.1547 24.0588 29.7376 24.6623L33.8752 28.7999H22.4C21.5513 28.7999 20.7374 29.137 20.1373 29.7372C19.5371 30.3373 19.2 31.1512 19.2 31.9999C19.2 32.8486 19.5371 33.6625 20.1373 34.2626C20.7374 34.8628 21.5513 35.1999 22.4 35.1999H33.8752L29.7376 39.3375C29.432 39.6327 29.1882 39.9858 29.0205 40.3762C28.8528 40.7666 28.7645 41.1865 28.7608 41.6114C28.7571 42.0363 28.8381 42.4577 28.999 42.851C29.1599 43.2442 29.3975 43.6015 29.6979 43.902C29.9984 44.2024 30.3557 44.44 30.7489 44.6009C31.1422 44.7618 31.5636 44.8428 31.9885 44.8391C32.4134 44.8354 32.8333 44.7471 33.2237 44.5794C33.6141 44.4117 33.9672 44.1679 34.2624 43.8623L43.8624 34.2623C44.4623 33.6622 44.7993 32.8484 44.7993 31.9999C44.7993 31.1514 44.4623 30.3376 43.8624 29.7375V29.7375Z" fill="#191C17"/>
</svg>
